HIERARCHY
ROOT Hips
{
	OFFSET -0.087744 88.518600 4.106688
	CHANNELS 6 Xposition Yposition Zposition Zrotation Yrotation Xrotation 
	JOINT Spine
	{
		OFFSET 0.000000 8.814246 -2.080107
		CHANNELS 3 Zrotation Yrotation Xrotation
		JOINT Spine1
		{
			OFFSET -0.000000 8.844141 -0.000000
			CHANNELS 3 Zrotation Yrotation Xrotation
			JOINT Spine2
			{
				OFFSET 0.000000 11.682268 0.000000
				CHANNELS 3 Zrotation Yrotation Xrotation
				JOINT Spine3
				{
					OFFSET 0.000000 11.746700 0.000000
					CHANNELS 3 Zrotation Yrotation Xrotation
					JOINT Neck
					{
						OFFSET 0.000000 17.658264 -0.000000
						CHANNELS 3 Zrotation Yrotation Xrotation
						JOINT Neck1
						{
							OFFSET -0.000000 5.101515 -0.000000
							CHANNELS 3 Zrotation Yrotation Xrotation
							JOINT Head
							{
								OFFSET -0.000000 5.101515 -0.000000
								CHANNELS 3 Zrotation Yrotation Xrotation
								JOINT HeadEnd
								{
									OFFSET 0.000000 11.655085 0.000000
									CHANNELS 3 Zrotation Yrotation Xrotation
									End Site
									{
										OFFSET 0.000000 0.000000 0.000000
									}
								}
							}
						}
					}
					JOINT RightShoulder
					{
						OFFSET -2.625389 11.175210 0.000000
						CHANNELS 3 Zrotation Yrotation Xrotation
						JOINT RightArm
						{
							OFFSET 0.000000 10.434715 -0.000000
							CHANNELS 3 Zrotation Yrotation Xrotation
							JOINT RightForeArm
							{
								OFFSET -0.000000 29.628420 0.000000
								CHANNELS 3 Zrotation Yrotation Xrotation
								JOINT RightHand
								{
									OFFSET -0.000000 22.857611 0.000000
									CHANNELS 3 Zrotation Yrotation Xrotation
									JOINT RightHandThumb1
									{
										OFFSET -2.867323 3.959563 2.944291
										CHANNELS 3 Zrotation Yrotation Xrotation
										JOINT RightHandThumb2
										{
											OFFSET -0.000000 3.350399 0.000000
											CHANNELS 3 Zrotation Yrotation Xrotation
											JOINT RightHandThumb3
											{
												OFFSET 0.000000 3.756509 -0.000000
												CHANNELS 3 Zrotation Yrotation Xrotation
												JOINT RightHandThumb4
												{
													OFFSET -0.000000 3.147345 0.000000
													CHANNELS 3 Zrotation Yrotation Xrotation
													End Site
													{
														OFFSET 0.000000 0.000000 0.000000
													}
												}
											}
										}
									}
									JOINT RightHandIndex1
									{
										OFFSET -0.086752 10.030893 2.345280
										CHANNELS 3 Zrotation Yrotation Xrotation
										JOINT RightHandIndex2
										{
											OFFSET 0.000000 4.061090 -0.000000
											CHANNELS 3 Zrotation Yrotation Xrotation
											JOINT RightHandIndex3
											{
												OFFSET 0.000000 3.248873 -0.000000
												CHANNELS 3 Zrotation Yrotation Xrotation
												JOINT RightHandIndex4
												{
													OFFSET 0.000000 2.639709 -0.000000
													CHANNELS 3 Zrotation Yrotation Xrotation
													End Site
													{
														OFFSET 0.000000 0.000000 0.000000
													}
												}
											}
										}
									}
									JOINT RightHandMiddle1
									{
										OFFSET 0.104102 9.502952 0.006768
										CHANNELS 3 Zrotation Yrotation Xrotation
										JOINT RightHandMiddle2
										{
											OFFSET 0.000000 4.568727 -0.000000
											CHANNELS 3 Zrotation Yrotation Xrotation
											JOINT RightHandMiddle3
											{
												OFFSET -0.000000 3.654981 0.000000
												CHANNELS 3 Zrotation Yrotation Xrotation
												JOINT RightHandMiddle4
												{
													OFFSET 0.000000 2.741236 0.000000
													CHANNELS 3 Zrotation Yrotation Xrotation
													End Site
													{
														OFFSET 0.000000 0.000000 0.000000
													}
												}
											}
										}
									}
									JOINT RightHandRing1
									{
										OFFSET 0.086752 8.921708 -2.267442
										CHANNELS 3 Zrotation Yrotation Xrotation
										JOINT RightHandRing2
										{
											OFFSET 0.000000 4.061090 -0.000000
											CHANNELS 3 Zrotation Yrotation Xrotation
											JOINT RightHandRing3
											{
												OFFSET -0.000000 3.654981 0.000000
												CHANNELS 3 Zrotation Yrotation Xrotation
												JOINT RightHandRing4
												{
													OFFSET 0.000000 2.741236 -0.000000
													CHANNELS 3 Zrotation Yrotation Xrotation
													End Site
													{
														OFFSET 0.000000 0.000000 0.000000
													}
												}
											}
										}
									}
									JOINT RightHandPinky1
									{
										OFFSET -0.173504 7.976997 -4.467199
										CHANNELS 3 Zrotation Yrotation Xrotation
										JOINT RightHandPinky2
										{
											OFFSET 0.000000 3.350399 0.000000
											CHANNELS 3 Zrotation Yrotation Xrotation
											JOINT RightHandPinky3
											{
												OFFSET 0.000000 2.842763 -0.000000
												CHANNELS 3 Zrotation Yrotation Xrotation
												JOINT RightHandPinky4
												{
													OFFSET -0.000000 2.639709 -0.000000
													CHANNELS 3 Zrotation Yrotation Xrotation
													End Site
													{
														OFFSET 0.000000 0.000000 0.000000
													}
												}
											}
										}
									}
									JOINT RightForeArmEnd
									{
										OFFSET 0.000000 0.000000 0.000000
										CHANNELS 3 Zrotation Yrotation Xrotation
										End Site
										{
											OFFSET 0.000000 0.000000 0.000000
										}
									}
								}
								JOINT RightArmEnd
								{
									OFFSET 0.000000 0.000000 0.000000
									CHANNELS 3 Zrotation Yrotation Xrotation
									End Site
									{
										OFFSET 0.000000 0.000000 0.000000
									}
								}
							}
						}
					}
					JOINT LeftShoulder
					{
						OFFSET 2.625389 11.175210 -0.000000
						CHANNELS 3 Zrotation Yrotation Xrotation
						JOINT LeftArm
						{
							OFFSET -0.000000 10.813635 0.000000
							CHANNELS 3 Zrotation Yrotation Xrotation
							JOINT LeftForeArm
							{
								OFFSET -0.000000 28.724781 0.000000
								CHANNELS 3 Zrotation Yrotation Xrotation
								JOINT LeftHand
								{
									OFFSET 0.644384 25.716167 -0.328871
									CHANNELS 3 Zrotation Yrotation Xrotation
									JOINT LeftHandThumb1
									{
										OFFSET 2.867323 3.959563 2.944291
										CHANNELS 3 Zrotation Yrotation Xrotation
										JOINT LeftHandThumb2
										{
											OFFSET -0.000000 3.350399 0.000000
											CHANNELS 3 Zrotation Yrotation Xrotation
											JOINT LeftHandThumb3
											{
												OFFSET -0.000000 3.756509 -0.000000
												CHANNELS 3 Zrotation Yrotation Xrotation
												JOINT LeftHandThumb4
												{
													OFFSET 0.000000 3.100000 -0.000000
													CHANNELS 3 Zrotation Yrotation Xrotation
													End Site
													{
														OFFSET 0.000000 0.000000 0.000000
													}
												}
											}
										}
									}
									JOINT LeftHandIndex1
									{
										OFFSET 0.086752 10.030893 2.345280
										CHANNELS 3 Zrotation Yrotation Xrotation
										JOINT LeftHandIndex2
										{
											OFFSET -0.000000 4.061090 0.000000
											CHANNELS 3 Zrotation Yrotation Xrotation
											JOINT LeftHandIndex3
											{
												OFFSET 0.000000 3.248873 0.000000
												CHANNELS 3 Zrotation Yrotation Xrotation
												JOINT LeftHandIndex4
												{
													OFFSET 0.000000 2.639709 -0.000000
													CHANNELS 3 Zrotation Yrotation Xrotation
													End Site
													{
														OFFSET 0.000000 0.000000 0.000000
													}
												}
											}
										}
									}
									JOINT LeftHandMiddle1
									{
										OFFSET -0.104102 9.502952 0.006768
										CHANNELS 3 Zrotation Yrotation Xrotation
										JOINT LeftHandMiddle2
										{
											OFFSET 0.000000 4.568727 -0.000000
											CHANNELS 3 Zrotation Yrotation Xrotation
											JOINT LeftHandMiddle3
											{
												OFFSET 0.000000 3.654981 0.000000
												CHANNELS 3 Zrotation Yrotation Xrotation
												JOINT LeftHandMiddle4
												{
													OFFSET -0.000000 2.741236 -0.000000
													CHANNELS 3 Zrotation Yrotation Xrotation
													End Site
													{
														OFFSET 0.000000 0.000000 0.000000
													}
												}
											}
										}
									}
									JOINT LeftHandRing1
									{
										OFFSET -0.086752 8.921708 -2.267442
										CHANNELS 3 Zrotation Yrotation Xrotation
										JOINT LeftHandRing2
										{
											OFFSET -0.000000 4.061090 -0.000000
											CHANNELS 3 Zrotation Yrotation Xrotation
											JOINT LeftHandRing3
											{
												OFFSET 0.000000 3.654981 0.000000
												CHANNELS 3 Zrotation Yrotation Xrotation
												JOINT LeftHandRing4
												{
													OFFSET -0.000000 2.741236 -0.000000
													CHANNELS 3 Zrotation Yrotation Xrotation
													End Site
													{
														OFFSET 0.000000 0.000000 0.000000
													}
												}
											}
										}
									}
									JOINT LeftHandPinky1
									{
										OFFSET 0.173504 7.976997 -4.467199
										CHANNELS 3 Zrotation Yrotation Xrotation
										JOINT LeftHandPinky2
										{
											OFFSET 0.000000 3.350399 0.000000
											CHANNELS 3 Zrotation Yrotation Xrotation
											JOINT LeftHandPinky3
											{
												OFFSET -0.000000 2.842763 -0.000000
												CHANNELS 3 Zrotation Yrotation Xrotation
												JOINT LeftHandPinky4
												{
													OFFSET -0.000000 2.639709 -0.000000
													CHANNELS 3 Zrotation Yrotation Xrotation
													End Site
													{
														OFFSET 0.000000 0.000000 0.000000
													}
												}
											}
										}
									}
									JOINT LeftForeArmEnd
									{
										OFFSET 0.000000 0.000000 0.000000
										CHANNELS 3 Zrotation Yrotation Xrotation
										End Site
										{
											OFFSET 0.000000 0.000000 0.000000
										}
									}
								}
								JOINT LeftArmEnd
								{
									OFFSET 0.000000 0.000000 0.000000
									CHANNELS 3 Zrotation Yrotation Xrotation
									End Site
									{
										OFFSET 0.000000 0.000000 0.000000
									}
								}
							}
						}
					}
				}
			}
		}
	}
	JOINT RightUpLeg
	{
		OFFSET -11.289943 0.000000 0.000000
		CHANNELS 3 Zrotation Yrotation Xrotation
		JOINT RightLeg
		{
			OFFSET -0.000000 -38.200325 -0.000000
			CHANNELS 3 Zrotation Yrotation Xrotation
			JOINT RightFoot
			{
				OFFSET -0.000000 -39.900856 -0.000000
				CHANNELS 3 Zrotation Yrotation Xrotation
				JOINT RightToeBase
				{
					OFFSET 0.000000 0.000000 15.261641
					CHANNELS 3 Zrotation Yrotation Xrotation
					JOINT RightToeBaseEnd
					{
						OFFSET 0.000000 0.000000 7.370709
						CHANNELS 3 Zrotation Yrotation Xrotation
						End Site
						{
							OFFSET 0.000000 0.000000 0.000000
						}
					}
				}
				JOINT RightLegEnd
				{
					OFFSET 0.000000 0.000000 0.000000
					CHANNELS 3 Zrotation Yrotation Xrotation
					End Site
					{
						OFFSET 0.000000 0.000000 0.000000
					}
				}
			}
			JOINT RightUpLegEnd
			{
				OFFSET 0.000000 0.000000 0.000000
				CHANNELS 3 Zrotation Yrotation Xrotation
				End Site
				{
					OFFSET 0.000000 0.000000 0.000000
				}
			}
		}
	}
	JOINT LeftUpLeg
	{
		OFFSET 11.315661 0.000000 -0.000000
		CHANNELS 3 Zrotation Yrotation Xrotation
		JOINT LeftLeg
		{
			OFFSET 0.000000 -38.200325 0.000000
			CHANNELS 3 Zrotation Yrotation Xrotation
			JOINT LeftFoot
			{
				OFFSET 0.000000 -39.900856 -0.000000
				CHANNELS 3 Zrotation Yrotation Xrotation
				JOINT LeftToeBase
				{
					OFFSET 0.000000 0.000000 15.261641
					CHANNELS 3 Zrotation Yrotation Xrotation
					JOINT LeftToeBaseEnd
					{
						OFFSET -0.000000 0.000000 7.539996
						CHANNELS 3 Zrotation Yrotation Xrotation
						End Site
						{
							OFFSET 0.000000 0.000000 0.000000
						}
					}
				}
				JOINT LeftLegEnd
				{
					OFFSET 0.000000 0.000000 0.000000
					CHANNELS 3 Zrotation Yrotation Xrotation
					End Site
					{
						OFFSET 0.000000 0.000000 0.000000
					}
				}
			}
			JOINT LeftUpLegEnd
			{
				OFFSET 0.000000 0.000000 0.000000
				CHANNELS 3 Zrotation Yrotation Xrotation
				End Site
				{
					OFFSET 0.000000 0.000000 0.000000
				}
			}
		}
	}
}
MOTION
Frames: 4
Frame Time: 0.016667
-0.087744 88.518600 4.106688 0.068919 0.010845 -8.942659 0.442413 -0.081069 6.970063 -1.393128 0.231170 0.120594 0.170773 -1.686916 3.633183 0.138037 -0.360124 1.632820 2.669741 1.360534 7.336633 0.504304 2.812674 -2.138667 -0.849185 -0.825950 -18.014040 0.000000 0.000000 0.000000 93.328857 -0.532019 9.249256 66.106537 -37.119999 4.142115 -0.118903 9.345549 21.275049 6.844851 17.264309 -6.195918 11.236529 -1.888869 39.607235 0.000000 0.000000 -27.360001 0.000000 0.000000 -18.999998 0.000000 0.000000 0.000000 16.490267 0.000000 -10.411167 11.543185 0.000000 0.000000 11.543185 0.000000 0.000000 0.000000 0.000000 0.000000 15.680838 0.000000 -10.611974 10.976586 0.000000 0.000000 10.976586 0.000000 0.000000 0.000000 0.000000 0.000000 17.926441 -0.000000 -9.075776 12.548511 0.000000 0.000000 12.548511 0.000000 0.000000 0.000000 0.000000 0.000000 19.209045 0.000000 -9.362014 13.446335 0.000000 0.000000 13.446335 0.000000 0.000000 0.000000 0.000000 0.000000 0.000000 0.000000 0.000000 0.000000 0.000000 0.000000 -92.264565 0.184447 4.508586 -67.528290 31.026754 -4.429007 -0.724142 -2.563973 37.835682 -1.518325 -21.259672 -14.755241 -10.637670 1.840800 39.870987 0.000000 0.000000 -25.919998 0.000000 0.000000 -18.000004 0.000000 0.000000 0.000000 -13.737988 0.000000 -10.271245 -9.616590 0.000000 0.000000 -9.616590 0.000000 0.000000 0.000000 0.000000 0.000000 -13.566373 0.000000 -10.909574 -9.496462 0.000000 0.000000 -9.496462 0.000000 0.000000 0.000000 0.000000 0.000000 -16.906538 -0.000000 -11.246544 -11.834577 0.000000 0.000000 -11.834577 0.000000 0.000000 0.000000 0.000000 0.000000 -19.165680 -0.000000 -11.938169 -13.415976 0.000000 0.000000 -13.415976 0.000000 0.000000 0.000000 0.000000 0.000000 0.000000 0.000000 0.000000 0.000000 0.000000 0.000000 -1.938379 -12.547268 14.781528 -0.051716 -0.791252 3.432337 -0.790947 -7.985100 17.498075 -0.970069 1.135202 -17.740036 0.000000 0.000000 0.000000 0.000000 0.000000 0.000000 0.000000 0.000000 0.000000 -1.007299 -7.770874 9.427107 0.095226 0.552794 9.721728 1.664590 4.975721 15.629977 0.746320 -0.643483 -19.338871 0.000000 0.000000 0.000000 0.000000 0.000000 0.000000 0.000000 0.000000 0.000000 
-0.041329 88.530380 3.890943 -0.322588 -0.125776 -9.156549 1.275840 -0.223598 6.488055 -1.322545 0.223064 1.283114 0.145756 -1.508309 2.392061 -0.727434 -0.386785 3.126788 2.790994 1.671062 4.609370 1.521959 3.207459 -2.739386 -0.712580 -1.244836 -17.115244 0.000000 0.000000 0.000000 93.090088 -0.650524 9.536889 67.616287 -35.843239 3.448773 -0.004615 11.710015 21.576904 7.158972 14.963624 -5.149751 10.972587 -1.851936 39.761833 0.000006 0.000029 -26.841576 0.000016 0.000034 -18.544874 0.000009 -0.000000 -0.000028 15.518160 -0.045816 -8.969195 10.859962 0.011446 -0.204038 11.021114 0.035057 -0.211202 -0.000019 0.000024 -0.000024 15.317875 -0.008665 -9.849294 10.476882 0.007026 -0.091195 10.523798 0.013610 -0.083132 0.000012 0.000042 0.000002 17.870316 -0.013341 -9.096913 11.916332 -0.008889 0.163099 11.935711 -0.026054 0.130663 -0.000004 0.000765 0.000000 18.827097 -0.036416 -10.021169 12.676090 -0.093469 0.686301 12.481321 -0.113600 0.563168 -0.000451 -0.000007 0.000021 0.000000 0.000000 0.000000 0.000000 0.000000 0.000000 -90.166824 0.079375 6.312782 -69.170235 29.118704 -4.839058 -0.820421 -4.503873 39.091324 1.434729 -17.373262 -17.215738 -10.088113 1.753996 40.145813 -0.000000 0.000022 -24.468838 -0.000006 -0.000023 -17.090454 0.000226 -0.000003 0.000762 -12.622345 0.016754 -8.818877 -8.608479 -0.022822 -0.006654 -8.993471 -0.008565 0.021259 0.000018 0.000364 0.000012 -12.656935 0.012388 -9.701423 -8.561205 -0.012631 0.011212 -8.469645 0.001489 0.015136 0.000641 -0.000042 0.000005 -16.178061 0.018754 -10.171138 -10.861979 0.013461 -0.066298 -10.757638 -0.001784 -0.042428 -0.000120 0.000008 0.000009 -18.013451 0.043134 -11.043285 -12.355385 0.030065 -0.178638 -12.285824 -0.027403 -0.206441 -0.000076 -0.000005 -0.000034 0.000000 0.000000 0.000000 0.000000 0.000000 0.000000 -2.900808 -11.361053 15.472050 -0.096602 -0.824459 4.106221 -0.533904 -9.059668 16.527983 -1.094883 1.134817 -17.060671 0.000000 0.000000 0.000000 0.000000 0.000000 0.000000 0.000000 0.000000 0.000000 0.115200 -5.317885 9.806956 0.088491 0.509918 9.542162 1.736308 2.972774 15.940139 0.562756 -0.495531 -20.012081 0.000000 0.000000 0.000000 0.000000 0.000000 0.000000 0.000000 0.000000 0.000000 
-0.030206 88.508293 3.836813 -0.278609 0.002165 -9.107371 1.178963 -0.230575 6.517566 -1.343465 0.213683 1.390473 0.156380 -1.631328 2.343953 -0.681529 -0.440590 3.173926 2.947717 1.567645 4.520563 1.527006 3.160885 -2.660884 -0.686214 -1.201656 -17.076517 0.000000 0.000000 0.000000 92.945465 -0.612335 9.658205 67.824112 -35.747478 3.465112 -0.040997 11.813668 21.773165 7.049092 14.293596 -5.273788 10.959977 -1.850897 39.769070 0.000003 0.000043 -26.812454 0.000020 0.000028 -18.527443 0.000013 0.000003 -0.000038 15.373461 -0.044247 -8.816103 10.826386 0.015381 -0.230229 10.994438 0.038906 -0.232525 -0.000003 0.000035 -0.000018 15.164819 -0.008575 -9.728495 10.426991 0.007152 -0.098998 10.456451 0.014634 -0.087471 0.000012 0.000026 -0.000005 17.640251 -0.015483 -9.055996 11.807898 -0.009341 0.164291 11.838326 -0.026067 0.134268 -0.000012 0.000864 -0.000004 18.576084 -0.042363 -10.072572 12.549816 -0.092502 0.687203 12.335880 -0.114770 0.566452 -0.000516 0.000002 0.000016 0.000000 0.000000 0.000000 0.000000 0.000000 0.000000 -89.860565 0.031193 6.360755 -69.785675 28.733118 -4.785252 -0.722140 -4.327735 38.967350 2.024598 -17.118181 -17.302702 -10.057014 1.751060 40.147671 0.000004 0.000027 -24.432289 -0.000019 -0.000015 -17.072193 0.000181 -0.000001 0.000610 -12.416107 0.020603 -8.651297 -8.554737 -0.023579 -0.018747 -8.951193 -0.008574 0.007852 0.000026 0.000350 0.000011 -12.442876 0.013415 -9.609404 -8.506427 -0.012909 0.003566 -8.408422 0.001325 0.009227 0.000867 -0.000042 -0.000028 -15.901667 0.020970 -10.193529 -10.762559 0.014841 -0.057560 -10.658312 -0.001231 -0.037249 -0.000036 0.000014 0.000009 -17.703922 0.044809 -11.155540 -12.219065 0.028867 -0.153264 -12.135029 -0.027651 -0.184337 -0.000110 0.000006 -0.000052 0.000000 0.000000 0.000000 0.000000 0.000000 0.000000 -3.037772 -11.532166 15.238564 -0.098475 -0.826997 4.300179 -0.387319 -9.049524 16.464855 -1.111549 1.141996 -17.063137 0.000000 0.000000 0.000000 0.000000 0.000000 0.000000 0.000000 0.000000 0.000000 0.120325 -5.236295 9.642591 0.090518 0.497639 9.638887 1.711536 2.832493 15.919903 0.562024 -0.502734 -19.981905 0.000000 0.000000 0.000000 0.000000 0.000000 0.000000 0.000000 0.000000 0.000000 
-0.027786 88.481636 3.774658 -0.230443 0.096080 -9.063096 1.092094 -0.231237 6.578466 -1.377445 0.215724 1.507114 0.165214 -1.722827 2.332839 -0.661409 -0.481475 3.237388 2.963995 1.515647 4.428950 1.528324 3.094292 -2.643237 -0.650138 -1.179631 -17.075626 0.000000 0.000000 0.000000 92.807693 -0.590925 9.794633 68.068390 -35.462811 3.456540 -0.058498 12.005772 22.227766 7.053029 13.598685 -5.376719 10.948421 -1.844167 39.783230 0.000004 0.000041 -26.786993 0.000018 0.000030 -18.500998 0.000013 0.000004 -0.000038 15.253630 -0.046461 -8.675707 10.883674 0.026242 -0.269373 11.048336 0.049493 -0.265667 -0.000003 0.000035 -0.000018 15.005286 -0.009975 -9.605505 10.464889 0.010328 -0.111801 10.476847 0.017689 -0.096862 0.000012 0.000015 -0.000002 17.355761 -0.015673 -8.993782 11.746326 -0.013364 0.168593 11.788128 -0.028471 0.140151 -0.000010 0.000865 -0.000003 18.196348 -0.040830 -10.075300 12.436572 -0.101292 0.690255 12.211517 -0.123561 0.569197 -0.000568 0.000002 0.000008 0.000000 0.000000 0.000000 0.000000 0.000000 0.000000 -89.604622 -0.002531 6.403121 -70.195923 28.367540 -4.569262 -0.633411 -4.338353 38.929890 2.479915 -16.713806 -17.181942 -10.003187 1.743075 40.165993 0.000003 0.000026 -24.340282 -0.000024 -0.000016 -17.012104 0.000088 -0.000004 0.000494 -12.058011 0.018895 -8.365615 -8.526319 -0.019558 -0.018502 -8.932470 -0.003985 0.004879 0.000024 0.000362 0.000013 -12.089849 0.012582 -9.420689 -8.470634 -0.011411 0.000426 -8.374889 0.002636 0.007004 0.001084 -0.000043 -0.000045 -15.476899 0.024748 -10.154278 -10.672668 0.012798 -0.054447 -10.561781 -0.002792 -0.034323 0.000010 0.000014 0.000008 -17.273626 0.052541 -11.215564 -12.075132 0.020956 -0.139439 -11.986157 -0.033077 -0.167867 -0.000140 0.000004 -0.000053 0.000000 0.000000 0.000000 0.000000 0.000000 0.000000 -3.160511 -11.609504 15.008507 -0.098684 -0.818706 4.518872 -0.284861 -9.118679 16.459110 -1.124636 1.138535 -17.118896 0.000000 0.000000 0.000000 0.000000 0.000000 0.000000 0.000000 0.000000 0.000000 0.122683 -5.172428 9.417460 0.093144 0.484468 9.903619 1.686151 2.730827 15.866345 0.556373 -0.501707 -19.999874 0.000000 0.000000 0.000000 0.000000 0.000000 0.000000 0.000000 0.000000 0.000000 
